<svg width="8" height="6" viewBox="0 0 8 6" fill="none" xmlns="http://www.w3.org/2000/svg">
<path fill-rule="evenodd" clip-rule="evenodd" d="M0.822959 1.32296C0.846181 1.29968 0.873769 1.28121 0.904142 1.2686C0.934514 1.256 0.967075 1.24951 0.999959 1.24951C1.03284 1.24951 1.0654 1.256 1.09578 1.2686C1.12615 1.28121 1.15374 1.29968 1.17696 1.32296L3.99996 4.14646L6.82296 1.32296C6.8462 1.29971 6.8738 1.28128 6.90417 1.2687C6.93454 1.25612 6.96709 1.24964 6.99996 1.24964C7.03283 1.24964 7.06538 1.25612 7.09575 1.2687C7.12612 1.28128 7.15371 1.29971 7.17696 1.32296C7.2002 1.3462 7.21864 1.3738 7.23122 1.40417C7.2438 1.43454 7.25027 1.46709 7.25027 1.49996C7.25027 1.53283 7.2438 1.56538 7.23122 1.59575C7.21864 1.62612 7.2002 1.65371 7.17696 1.67696L4.17696 4.67696C4.15374 4.70024 4.12615 4.71871 4.09578 4.73131C4.0654 4.74392 4.03284 4.75041 3.99996 4.75041C3.96707 4.75041 3.93451 4.74392 3.90414 4.73131C3.87377 4.71871 3.84618 4.70024 3.82296 4.67696L0.822959 1.67696C0.799677 1.65374 0.781206 1.62615 0.768602 1.59578C0.755999 1.5654 0.749512 1.53284 0.749512 1.49996C0.749512 1.46707 0.755999 1.43451 0.768602 1.40414C0.781206 1.37377 0.799677 1.34618 0.822959 1.32296Z" fill="white" stroke="white" stroke-width="0.7"/>
</svg>
